HIERARCHY
ROOT Hips
{
  OFFSET -13.859 91.1892 21.8595
  CHANNELS 6 Xposition Yposition Zposition Zrotation Xrotation Yrotation
  JOINT Spine
  {
    OFFSET 10.8089 -0.851415 0
    CHANNELS 3 Zrotation Xrotation Yrotation
    JOINT Spine1
    {
      OFFSET 18.8753 3.80116 0
      CHANNELS 3 Zrotation Xrotation Yrotation
      JOINT Spine2
      {
        OFFSET 13.4073 0.420477 0
        CHANNELS 3 Zrotation Xrotation Yrotation
        JOINT LeftShoulder
        {
          OFFSET 11.8837 -2.73209 -3.78198
          CHANNELS 3 Zrotation Xrotation Yrotation
          JOINT LeftArm
          {
            OFFSET 15.7849 0 0
            CHANNELS 3 Zrotation Xrotation Yrotation
            JOINT LeftForeArm
            {
              OFFSET 30.3399 0 0
              CHANNELS 3 Zrotation Xrotation Yrotation
              JOINT LeftHand
              {
                OFFSET 26.9751 0 0
                CHANNELS 3 Zrotation Xrotation Yrotation
                End Site
                {
                  OFFSET 8 0 0
                }
              }
            }
          }
        }
        JOINT RightShoulder
        {
          OFFSET 11.8838 -2.7321 3.782
          CHANNELS 3 Zrotation Xrotation Yrotation
          JOINT RightArm
          {
            OFFSET -15.7848 0 0
            CHANNELS 3 Zrotation Xrotation Yrotation
            JOINT RightForeArm
            {
              OFFSET -30.34 0 0
              CHANNELS 3 Zrotation Xrotation Yrotation
              JOINT RightHand
              {
                OFFSET -26.9752 2.55532e-05 0
                CHANNELS 3 Zrotation Xrotation Yrotation
                End Site
                {
                  OFFSET -8 0 0
                }
              }
            }
          }
        }
        JOINT Neck
        {
          OFFSET 16.5588 -0.355317 0
          CHANNELS 3 Zrotation Xrotation Yrotation
          JOINT Head
          {
            OFFSET 9.28362 0.364158 0
            CHANNELS 3 Zrotation Xrotation Yrotation
            End Site
            {
              OFFSET 5.28361 0.364157 0
            }
          }
        }
      }
    }
  }
  JOINT LeftUpLeg
  {
    OFFSET -1.44882 -0.531424 -9.00581
    CHANNELS 3 Zrotation Xrotation Yrotation
    JOINT LeftLeg
    {
      OFFSET -42.572 0 0
      CHANNELS 3 Zrotation Xrotation Yrotation
      JOINT LeftFoot
      {
        OFFSET -40.1967 0 0
        CHANNELS 3 Zrotation Xrotation Yrotation
        JOINT LeftToe
        {
          OFFSET -10.4538 -16.5779 0.0801573
          CHANNELS 3 Zrotation Xrotation Yrotation
          End Site
          {
            OFFSET 3 0 0
          }
        }
      }
    }
  }
  JOINT RightUpLeg
  {
    OFFSET -1.44865 -0.531428 9.0058
    CHANNELS 3 Zrotation Xrotation Yrotation
    JOINT RightLeg
    {
      OFFSET 42.5723 0 0
      CHANNELS 3 Zrotation Xrotation Yrotation
      JOINT RightFoot
      {
        OFFSET 40.1968 0 -1.14441e-05
        CHANNELS 3 Zrotation Xrotation Yrotation
        JOINT RightToe
        {
          OFFSET 10.4538 16.5778 -0.0801582
          CHANNELS 3 Zrotation Xrotation Yrotation
          End Site
          {
            OFFSET -3 0 0
          }
        }
      }
    }
  }
}
MOTION
Frames:	11
Frame Time:	0.0333333
-50.5182 93.8178 -202.845 -74.7838 -78.3357 -163.416 -6.5453 0.283609 -1.91079 15.2584 -0.39826 -3.84257 3.96803 -0.583978 -3.81877 -6.5866 30.6577 97.4787 -42.6678 11.0249 88.972 -28.4915 -4.1242 -12.5493 -16.3322 -68.3812 -9.45831 173.711 29.3915 96.2674 -33.7522 11.908 80.8009 -19.7911 -5.02473 -10.8984 -12.2157 -66.5021 -9.05725 -22.276 -2.02234 12.1866 -6.50227 -4.3298 -3.80008 25.8536 13.0253 -7.55376 -70.7619 -1.52066 -5.7349 -11.1267 -6.98229 -3.53959 -91.8836 0.00394553 0.00895438 -159.884 -0.206579 7.56775 -33.5284 -5.47631 -2.23698 0.914494 2.74975 -0.278356 -91.8836 0.00394166 0.00895438 
-50.7887 93.8298 -197.35 -77.5434 -79.2592 -165.383 -6.38513 0.861955 -2.04934 15.5958 0.64719 -4.39872 4.30344 0.433342 -4.42484 -6.38499 30.466 97.4427 -46.7574 13.4456 91.5683 -26.747 -4.31057 -11.8613 -14.8737 -66.5597 -7.80383 173.943 29.2227 96.2395 -36.8797 12.6814 80.4542 -22.0219 -4.72355 -12.0661 -13.1801 -68.1466 -9.92545 -20.9044 -2.6346 11.4444 -8.61511 -6.26803 -3.21013 30.3687 11.4604 -8.43993 -69.0809 -1.59211 -5.38361 -7.24055 -2.47832 -1.63462 -91.8836 0.00394553 0.00895438 -164.538 0.463361 7.82974 -33.5862 -5.5688 -2.3852 3.87543 3.79211 -0.290152 -91.8836 0.00394166 0.00895438 
-50.5435 93.1917 -191.984 -69.1205 -86.5483 -155.638 -6.99801 -0.322519 -1.8221 14.3411 -1.51519 -3.37654 3.05321 -1.67703 -3.2992 -6.71444 30.4636 97.7405 -47.5866 13.1678 88.827 -25.4665 -4.43993 -11.2727 -15.439 -67.0108 -8.28045 173.882 29.09 95.9037 -41.1721 8.19749 82.8913 -23.8784 -4.50144 -12.986 -14.1915 -69.1849 -10.8595 -20.7209 -2.86596 10.0339 -7.44603 -7.14632 -4.70229 33.9353 4.72207 -6.19517 -65.167 -1.99714 -4.88411 -4.06505 0.762343 -0.629603 -91.8836 0.00394553 0.00895438 -170.591 3.87495 8.61822 -33.4097 -5.63185 -2.51076 8.58679 8.32676 -0.42923 -91.8836 0.00394166 0.00895438 
-51.1214 92.7618 -186.819 -75.009 -85.2629 -160.383 -6.75086 0.285932 -2.21408 14.8382 -0.535991 -4.4324 3.54591 -0.750072 -4.40129 -6.42383 30.3283 97.5634 -47.6937 15.2857 92.2135 -24.6813 -4.46534 -11.0184 -16.1816 -67.6748 -8.83358 174.113 28.9105 95.8767 -45.2107 9.11616 80.8556 -26.3656 -4.05404 -14.2641 -15.1396 -71.2395 -11.7181 -19.2771 -3.03858 10.5502 -9.14539 -7.58391 -4.04794 36.6259 4.68184 -7.86226 -57.5748 -2.85258 -4.04541 0.812926 3.77245 -0.152625 -91.8836 0.00394553 0.00895438 -175.124 2.92994 9.92153 -31.0792 -5.86713 -2.30634 9.90562 8.28229 -0.737997 -91.8836 0.00394166 0.00895438 
-51.4984 92.7057 -181.547 -74.7309 -83.7749 -159.519 -6.3927 -0.133855 -2.74434 15.5188 -1.62628 -5.24933 4.22436 -1.87857 -5.16461 -6.27199 30.5796 97.4061 -41.3815 18.2245 94.9841 -24.2529 -4.60102 -10.7766 -13.9428 -66.5273 -7.04893 174.163 28.8678 95.7702 -53.1411 10.5511 78.9321 -28.1172 -3.80788 -15.0219 -16.7606 -73.1449 -13.445 -22.3954 -2.349 12.445 -6.39407 -4.86677 -3.10234 38.1439 3.39444 -8.39441 -46.5629 -3.97559 -2.72889 -0.780989 5.62738 0.455049 -91.8836 0.00394553 0.00895438 179.994 2.25834 10.0382 -27.0032 -6.2017 -1.80811 9.8296 7.77321 -0.818072 -91.8836 0.00394166 0.00895438 
-51.7495 92.478 -176.219 -71.9532 -82.5281 -156.179 -6.72859 1.44117 -1.9603 14.9372 1.82638 -4.51045 3.64546 1.60576 -4.59346 -6.5193 30.2388 97.6627 -44.6538 16.2615 91.4735 -22.1431 -4.84433 -9.88337 -13.3202 -65.4436 -6.48192 174.206 28.7399 95.6281 -48.1194 4.62621 78.9181 -29.6073 -3.48375 -15.8152 -16.5911 -72.8036 -13.3339 -17.5868 -3.45066 9.29061 -9.24776 -9.26962 -4.34735 38.7411 -0.0934328 -8.41213 -34.9557 -4.91008 -1.09465 -2.96384 7.34654 1.27273 -91.8836 0.00394553 0.00895438 175.335 1.88539 9.90836 -22.9093 -6.4575 -1.25612 9.42147 6.7363 -0.899798 -91.8836 0.00394166 0.00895438 
-51.8136 92.4884 -170.405 -72.8355 -81.7237 -157.255 -6.40593 1.2164 -2.15538 15.568 1.28132 -4.78084 4.27454 1.04828 -4.83716 -6.46895 30.4618 97.635 -38.8542 18.7719 92.6652 -20.7952 -4.98177 -9.28701 -13.0265 -64.7923 -6.2135 174.302 28.7852 95.516 -51.5185 5.69548 77.7562 -30.9676 -3.25171 -16.4084 -17.2936 -73.456 -13.9438 -19.3968 -2.94532 10.3416 -8.23572 -7.48855 -4.03164 38.5674 -2.98149 -7.62823 -27.273 -5.38194 0.183314 -0.210833 11.4642 2.03381 -91.8836 0.00394553 0.00895438 170.825 2.07965 8.54071 -19.705 -6.65781 -0.76207 7.78278 4.36587 -0.860197 -91.8836 0.00394166 0.00895438 
-51.7573 91.8846 -164.49 -73.9764 -81.8357 -158.461 -5.97819 0.765062 -2.45909 16.3941 0.237334 -5.14457 5.09861 -0.0120513 -5.15 -6.35629 30.7521 97.5669 -33.4717 22.1074 93.7776 -19.6411 -5.08805 -8.78237 -12.7643 -63.4567 -5.84273 174.393 28.838 95.4013 -53.8327 8.01876 77.3444 -32.1917 -3.04013 -16.9139 -18.1941 -74.2756 -14.8532 -22.8587 -2.78808 11.5777 -6.9225 -5.90451 -3.5601 39.2212 -0.349566 -7.17669 -26.4777 -5.48194 0.352803 1.32616 8.85793 1.14048 -91.8836 0.00394553 0.00895438 167.091 2.16888 7.461 -19.9825 -6.7186 -0.837753 6.22746 2.18342 -0.832767 -91.8836 0.00394166 0.00895438 
-51.5619 91.5032 -157.909 -80.1267 -82.3472 -165.056 -5.69591 0.430433 -2.48575 16.9432 -0.435725 -5.02597 5.6485 -0.678606 -4.99903 -6.27303 31.0712 97.5678 -30.0674 25.1343 93.6717 -18.4993 -5.15883 -8.28613 -12.7379 -62.0205 -5.57498 174.522 28.8888 95.1571 -54.8597 10.3943 78.2226 -33.5159 -2.79309 -17.4457 -20.0959 -75.8309 -16.7764 -25.5047 -2.86504 13.0609 -6.8749 -4.25993 -4.37351 37.9909 3.08845 -5.90163 -29.7141 -5.43393 -0.221074 -0.881458 1.93429 -0.563413 -91.8836 0.00394553 0.00895438 164.929 2.81405 5.99096 -23.784 -6.59234 -1.58981 2.5779 -1.30715 -1.01487 -91.8836 0.00394166 0.00895438 
-51.0735 91.2974 -151.045 -83.4117 -82.23 -168.881 -5.95319 0.742239 -2.47373 16.4425 0.184686 -5.16141 5.14701 -0.0654677 -5.16427 -6.41863 31.0181 97.5939 -28.0967 23.6872 93.8002 -17.141 -5.25599 -7.78229 -11.6784 -58.9844 -4.38237 174.572 29.0568 95.2687 -53.2155 10.358 76.8481 -34.2503 -2.63588 -17.7187 -22.0642 -77.0677 -18.8153 -21.8355 -3.02008 13.0075 -10.1792 -5.56578 -3.89786 37.1358 2.60523 -3.64136 -33.4541 -5.34867 -0.904243 -7.92609 -4.30687 -2.71939 -91.8836 0.00394553 0.00895438 166.403 4.92522 4.09482 -31.3065 -6.17679 -2.7857 -7.5501 -5.9576 -2.48673 -91.8836 0.00394166 0.00895438 
-50.4447 91.0669 -144.78 -86.4904 -81.6901 -174.053 -6.6913 2.66558 -0.648799 15.0682 4.84476 -2.57811 3.79062 4.71409 -2.81027 -6.84571 30.5355 98.057 -35.0362 18.7171 87.911 -15.5455 -5.36046 -7.09272 -11.6763 -58.5777 -4.31892 174.539 29.0085 95.2127 -41.2702 4.0685 80.263 -33.6597 -2.63998 -17.5983 -19.6315 -75.4765 -16.3509 -14.3576 -4.57858 8.32898 -15.5112 -11.4541 -6.82496 35.9194 4.31269 -0.724522 -38.2111 -5.1285 -1.6267 -9.28909 -3.67317 -2.45461 -91.8836 0.00394553 0.00895438 172.396 6.06303 0.572291 -42.6628 -5.09291 -4.34463 -23.3356 -7.76946 -5.34799 -91.8836 0.00394166 0.00895438 
